<?xml version="1.0" encoding="UTF-8"?>
<svg version="1.1" xmlns="http://www.w3.org/2000/svg" width="500" height="500">
<path d="M0 0 C165 0 330 0 500 0 C500 165 500 330 500 500 C335 500 170 500 0 500 C0 335 0 170 0 0 Z " fill="#FEFEFE" transform="translate(0,0)"/>
<path d="M0 0 C5.99150766 5.45083754 10.94317842 11.68992801 16 18 C16.67160156 18.804375 17.34320313 19.60875 18.03515625 20.4375 C33.36626787 38.96894307 44.65609293 61.17072619 52 84 C52.59554687 85.82724609 52.59554687 85.82724609 53.203125 87.69140625 C57.65501349 102.29293603 60.118744 117.69457432 60.203125 132.9609375 C60.20882507 133.79098297 60.21452515 134.62102844 60.22039795 135.47622681 C60.22978254 137.22583775 60.23635564 138.97546584 60.24023438 140.72509766 C60.24984888 143.33399481 60.28089723 145.94207121 60.3125 148.55078125 C60.41425992 164.44346286 58.47651247 179.70677445 53.8125 194.9375 C53.51206787 195.93837646 53.21163574 196.93925293 52.90209961 197.97045898 C48.14708152 213.42457361 42.00083256 227.9559854 34 242 C33 240 33 240 33.62084961 237.84521484 C34.13143921 236.54124756 34.13143921 236.54124756 34.65234375 235.2109375 C35.01650391 234.26992188 35.38066406 233.32890625 35.75585938 232.359375 C36.34077148 230.88210938 36.34077148 230.88210938 36.9375 229.375 C37.32357422 228.38242187 37.70964844 227.38984375 38.10742188 226.3671875 C39.06481137 223.90870583 40.02925759 221.45323318 41 219 C39.27716797 218.82210937 39.27716797 218.82210937 37.51953125 218.640625 C33.09780503 218.08536103 28.95614785 217.00252627 24.6875 215.75 C23.09795024 215.2971439 21.50809601 214.84535537 19.91796875 214.39453125 C19.10634277 214.16330566 18.2947168 213.93208008 17.45849609 213.69384766 C13.4820128 212.57158693 9.49335419 211.49794115 5.5 210.4375 C4.81510498 210.25219727 4.13020996 210.06689453 3.42456055 209.87597656 C-11.88442605 205.82334131 -27.36888294 202.91170716 -43 200.4375 C-43.94767242 200.28625671 -44.89534485 200.13501343 -45.87173462 199.97918701 C-63.86644005 197.12815658 -81.81965021 195.19008345 -100 194 C-100.69336456 193.95308014 -101.38672913 193.90616028 -102.10110474 193.8578186 C-111.43266442 193.23105736 -120.70546447 192.85927398 -130.0625 192.9375 C-131.13048828 192.94201172 -132.19847656 192.94652344 -133.29882812 192.95117188 C-135.86595195 192.96268364 -138.4329401 192.9789293 -141 193 C-139.751617 194.26201825 -138.5012171 195.52204155 -137.25 196.78125 C-136.55390625 197.48314453 -135.8578125 198.18503906 -135.140625 198.90820312 C-132.21616731 201.7659533 -129.14052953 204.38289206 -126 207 C-126.99 207.66 -127.98 208.32 -129 209 C-128.21625 209.5775 -127.4325 210.155 -126.625 210.75 C-124.03619346 212.96897703 -123.15458853 213.89583854 -122 217 C-121.77294922 220.11621094 -121.77294922 220.11621094 -121.8046875 223.734375 C-121.81435547 225.67763672 -121.81435547 225.67763672 -121.82421875 227.66015625 C-121.84092807 229.02344019 -121.85785794 230.38672144 -121.875 231.75 C-121.8850366 233.12889985 -121.89416127 234.50780665 -121.90234375 235.88671875 C-121.92591907 239.25798882 -121.9588273 242.62890636 -122 246 C-125.3 246 -128.6 246 -132 246 C-132.33 245.01 -132.66 244.02 -133 243 C-133.8971875 243.7115625 -133.8971875 243.7115625 -134.8125 244.4375 C-138.79242496 247.28030354 -142.22289602 247.32387146 -147 247 C-151.21852374 245.37749087 -153.63393447 243.83889018 -156 240 C-156.86120395 235.22846462 -156.70334178 231.20572876 -154.25 227 C-150.0419893 223.25954605 -147.06388488 222.74209018 -141.4375 222.8125 C-140.30183594 222.81894531 -139.16617188 222.82539063 -137.99609375 222.83203125 C-135 223 -135 223 -132 224 C-133.11854586 220.27385847 -133.11854586 220.27385847 -136 218 C-137.7895469 217.90342128 -139.58285534 217.87019532 -141.375 217.875 C-142.33148438 217.87242187 -143.28796875 217.86984375 -144.2734375 217.8671875 C-146.68140854 217.98448122 -148.69990068 218.31324049 -151 219 C-152.49821059 215.62902617 -153 213.79557881 -153 210 C-148.01770224 208.08373163 -143.27315333 207.4452885 -138 207 C-139.93444377 205.03856399 -141.87236821 203.08079606 -143.8125 201.125 C-144.35970703 200.56941406 -144.90691406 200.01382812 -145.47070312 199.44140625 C-146.00244141 198.90644531 -146.53417969 198.37148438 -147.08203125 197.8203125 C-147.56905518 197.32805176 -148.0560791 196.83579102 -148.55786133 196.32861328 C-153.28827734 191.97057639 -157.59083717 192.65511032 -163.6875 192.6875 C-165.3900293 192.69595947 -165.3900293 192.69595947 -167.12695312 192.70458984 C-206.18018499 193.22550591 -246.06800616 197.5795268 -284 207 C-282.02 207.33 -280.04 207.66 -278 208 C-277.67 209.65 -277.34 211.3 -277 213 C-275.948125 211.7934375 -275.948125 211.7934375 -274.875 210.5625 C-271.73708407 207.76566189 -270.11241237 207.28691249 -266 207 C-266 210.96 -266 214.92 -266 219 C-267.6396875 219.4021875 -267.6396875 219.4021875 -269.3125 219.8125 C-273.30866272 221.09308312 -273.30866272 221.09308312 -276 224 C-277.17469444 226.34938888 -277.20034889 227.95073205 -277.31640625 230.5703125 C-277.35830078 231.46621094 -277.40019531 232.36210937 -277.44335938 233.28515625 C-277.48267578 234.22230469 -277.52199219 235.15945313 -277.5625 236.125 C-277.62727539 237.54232422 -277.62727539 237.54232422 -277.69335938 238.98828125 C-277.7995894 241.32534172 -277.90031271 243.6626513 -278 246 C-281.63 246 -285.26 246 -289 246 C-289 233.46 -289 220.92 -289 208 C-303.11714494 211.3007029 -303.11714494 211.3007029 -317.0625 215.125 C-323.01814451 216.87007991 -328.96849057 218.53570291 -335 220 C-334.55527344 221.19238281 -334.11054688 222.38476562 -333.65234375 223.61328125 C-333.0802476 225.17951168 -332.50865934 226.7459277 -331.9375 228.3125 C-331.64294922 229.09818359 -331.34839844 229.88386719 -331.04492188 230.69335938 C-330.77099609 231.45068359 -330.49707031 232.20800781 -330.21484375 232.98828125 C-329.95823975 233.68477783 -329.70163574 234.38127441 -329.43725586 235.09887695 C-329 237 -329 237 -330 240 C-355.03657869 191.03957946 -362.13773993 135.77326783 -345.43359375 82.95703125 C-335.67491232 53.28014278 -319.54038593 27.52504567 -298 5 C-297.12601563 4.07316406 -296.25203125 3.14632812 -295.3515625 2.19140625 C-288.94735242 -4.42878159 -282.12606981 -10.16203743 -274.76318359 -15.67675781 C-273.08730314 -16.93448034 -271.42850494 -18.2123063 -269.76953125 -19.4921875 C-199.48126869 -72.701654 -94.2493676 -70.93153569 0 0 Z " fill="#FDFDFD" transform="translate(398,97)"/>
<path d="M0 0 C5.95411495 1.51327464 11.9107784 3.01585651 17.87054443 4.50671387 C20.26880109 5.11393574 22.66096394 5.74169171 25.05322266 6.37207031 C35.58873029 9.11678314 35.58873029 9.11678314 46.3125 8.125 C46.97797852 7.98578125 47.64345703 7.8465625 48.32910156 7.703125 C50.54473231 7.2216015 52.7388037 6.67862034 54.9375 6.125 C56.75614621 5.68079786 58.57519542 5.23824411 60.39453125 4.796875 C61.97355225 4.41305664 61.97355225 4.41305664 63.58447266 4.02148438 C70.70822214 2.30842556 77.84375696 0.64601024 84.980896 -1.01025391 C86.73360673 -1.41775379 88.48593221 -1.82691454 90.237854 -2.23779297 C92.73710723 -2.82388131 95.23753519 -3.40469395 97.73828125 -3.984375 C98.48349533 -4.16023132 99.22870941 -4.33608765 99.99650574 -4.51727295 C104.75727834 -5.61302954 109.43624121 -6.4972964 114.3125 -6.875 C116.78125 -5.25 116.78125 -5.25 118.8125 -2.875 C119.56789063 -2.03710938 120.32328125 -1.19921875 121.1015625 -0.3359375 C122.19597656 0.88222656 122.19597656 0.88222656 123.3125 2.125 C124.58291672 3.27394261 125.87381364 4.40079305 127.1875 5.5 C130.55807765 8.38714819 133.69753521 11.46747378 136.8125 14.625 C139.86587286 17.71992241 142.93573732 20.74434317 146.25 23.5625 C150.35676535 27.06210497 154.09974806 30.88482009 157.88818359 34.72021484 C161.21816329 38.07544557 164.65172489 41.22217875 168.25390625 44.28515625 C171.38403162 47.08266867 174.29935658 50.09124506 177.24633789 53.07836914 C179.8517137 55.70540002 182.49712205 58.22500568 185.3125 60.625 C188.6455453 63.46628451 191.73778825 66.5099487 194.8125 69.625 C205.6529964 80.56379346 216.57535399 87.43007069 230.3125 94.125 C227.01273159 95.2249228 226.29240452 95.05344033 223.09375 94.0859375 C222.25368408 93.83763184 221.41361816 93.58932617 220.5480957 93.33349609 C219.64534912 93.05844238 218.74260254 92.78338867 217.8125 92.5 C215.90019294 91.93596068 213.98742213 91.37349151 212.07421875 90.8125 C211.10790527 90.52761719 210.1415918 90.24273437 209.14599609 89.94921875 C204.98776024 88.73965436 200.81176107 87.60622189 196.625 86.5 C195.95210938 86.31872559 195.27921875 86.13745117 194.5859375 85.95068359 C179.32368377 81.93261819 163.89068299 79.02832837 148.3125 76.5625 C147.36482758 76.41125671 146.41715515 76.26001343 145.44076538 76.10418701 C127.44605995 73.25315658 109.49284979 71.31508345 91.3125 70.125 C90.61913544 70.07808014 89.92577087 70.03116028 89.21139526 69.9828186 C79.87983558 69.35605736 70.60703553 68.98427398 61.25 69.0625 C60.18201172 69.06701172 59.11402344 69.07152344 58.01367188 69.07617188 C55.44654805 69.08768364 52.8795599 69.1039293 50.3125 69.125 C51.560883 70.38701825 52.8112829 71.64704155 54.0625 72.90625 C54.75859375 73.60814453 55.4546875 74.31003906 56.171875 75.03320312 C59.09633269 77.8909533 62.17197047 80.50789206 65.3125 83.125 C64.3225 83.785 63.3325 84.445 62.3125 85.125 C63.488125 85.99125 63.488125 85.99125 64.6875 86.875 C67.27630654 89.09397703 68.15791147 90.02083854 69.3125 93.125 C69.53955078 96.24121094 69.53955078 96.24121094 69.5078125 99.859375 C69.49814453 101.80263672 69.49814453 101.80263672 69.48828125 103.78515625 C69.47157193 105.14844019 69.45464206 106.51172144 69.4375 107.875 C69.4274634 109.25389985 69.41833873 110.63280665 69.41015625 112.01171875 C69.38658093 115.38298882 69.3536727 118.75390636 69.3125 122.125 C66.0125 122.125 62.7125 122.125 59.3125 122.125 C58.9825 121.135 58.6525 120.145 58.3125 119.125 C57.714375 119.599375 57.11625 120.07375 56.5 120.5625 C52.52007504 123.40530354 49.08960398 123.44887146 44.3125 123.125 C40.09397626 121.50249087 37.67856553 119.96389018 35.3125 116.125 C34.45129605 111.35346462 34.60915822 107.33072876 37.0625 103.125 C41.2705107 99.38454605 44.24861512 98.86709018 49.875 98.9375 C51.01066406 98.94394531 52.14632812 98.95039063 53.31640625 98.95703125 C56.3125 99.125 56.3125 99.125 59.3125 100.125 C58.19395414 96.39885847 58.19395414 96.39885847 55.3125 94.125 C53.5229531 94.02842128 51.72964466 93.99519532 49.9375 94 C48.98101562 93.99742187 48.02453125 93.99484375 47.0390625 93.9921875 C44.63109146 94.10948122 42.61259932 94.43824049 40.3125 95.125 C38.81428941 91.75402617 38.3125 89.92057881 38.3125 86.125 C43.29479776 84.20873163 48.03934667 83.5702885 53.3125 83.125 C51.37805623 81.16356399 49.44013179 79.20579606 47.5 77.25 C46.67918945 76.41662109 46.67918945 76.41662109 45.84179688 75.56640625 C45.04418945 74.76396484 45.04418945 74.76396484 44.23046875 73.9453125 C43.49993286 73.20692139 43.49993286 73.20692139 42.75463867 72.45361328 C38.02422266 68.09557639 33.72166283 68.78011032 27.625 68.8125 C25.9224707 68.82095947 25.9224707 68.82095947 24.18554688 68.82958984 C-14.86768499 69.35050591 -54.75550616 73.7045268 -92.6875 83.125 C-89.7175 83.62 -89.7175 83.62 -86.6875 84.125 C-86.3575 85.775 -86.0275 87.425 -85.6875 89.125 C-84.98625 88.320625 -84.285 87.51625 -83.5625 86.6875 C-80.42458407 83.89066189 -78.79991237 83.41191249 -74.6875 83.125 C-74.6875 87.085 -74.6875 91.045 -74.6875 95.125 C-76.3271875 95.5271875 -76.3271875 95.5271875 -78 95.9375 C-81.99616272 97.21808312 -81.99616272 97.21808312 -84.6875 100.125 C-85.86219444 102.47438888 -85.88784889 104.07573205 -86.00390625 106.6953125 C-86.06674805 108.03916016 -86.06674805 108.03916016 -86.13085938 109.41015625 C-86.17017578 110.34730469 -86.20949219 111.28445313 -86.25 112.25 C-86.31477539 113.66732422 -86.31477539 113.66732422 -86.38085938 115.11328125 C-86.4870894 117.45034172 -86.58781271 119.7876513 -86.6875 122.125 C-90.3175 122.125 -93.9475 122.125 -97.6875 122.125 C-97.6875 109.585 -97.6875 97.045 -97.6875 84.125 C-108.21731753 86.60260413 -118.49031799 89.11051856 -128.7890625 92.27539062 C-129.65015625 92.53126953 -130.51125 92.78714844 -131.3984375 93.05078125 C-132.15431152 93.28192627 -132.91018555 93.51307129 -133.68896484 93.7512207 C-135.6875 94.125 -135.6875 94.125 -138.6875 93.125 C-133.4075 90.485 -128.1275 87.845 -122.6875 85.125 C-124.0075 84.465 -125.3275 83.805 -126.6875 83.125 C-120.21090858 76.55125971 -113.73651517 70.09252243 -106.6875 64.125 C-104.94449027 62.38199027 -105.51743914 59.96804811 -105.48217773 57.59545898 C-105.46223251 56.41431015 -105.44228729 55.23316132 -105.42173767 54.01622009 C-105.39666893 52.08813255 -105.39666893 52.08813255 -105.37109375 50.12109375 C-105.35031265 48.81294205 -105.32953156 47.50479034 -105.30812073 46.15699768 C-105.252837 42.67344553 -105.20345569 39.1898334 -105.15527344 35.70617676 C-105.10510426 32.1536728 -105.04944809 28.60125519 -104.99414062 25.04882812 C-104.8859607 18.07428445 -104.7869873 11.09969486 -104.6875 4.125 C-91.4875 4.125 -78.2875 4.125 -64.6875 4.125 C-64.1925 13.53 -64.1925 13.53 -63.6875 23.125 C-62.6975 22.114375 -61.7075 21.10375 -60.6875 20.0625 C-58.18505004 17.55504514 -55.6318658 15.17411792 -52.9375 12.875 C-49.48333183 9.90468418 -46.26398356 6.73709757 -43.0625 3.5 C-42.11089841 2.55576648 -41.1590827 1.61174869 -40.20703125 0.66796875 C-38.78571648 -0.76656755 -37.38660272 -2.22689682 -36.07421875 -3.76171875 C-29.12279091 -11.24629445 -8.84569017 -2.26137845 0 0 Z " fill="#29292A" transform="translate(206.6875,220.875)"/>
<path d="M0 0 C5.99150766 5.45083754 10.94317842 11.68992801 16 18 C16.67160156 18.804375 17.34320313 19.60875 18.03515625 20.4375 C33.36626787 38.96894307 44.65609293 61.17072619 52 84 C52.59554687 85.82724609 52.59554687 85.82724609 53.203125 87.69140625 C57.65501349 102.29293603 60.118744 117.69457432 60.203125 132.9609375 C60.20882507 133.79098297 60.21452515 134.62102844 60.22039795 135.47622681 C60.22978254 137.22583775 60.23635564 138.97546584 60.24023438 140.72509766 C60.24984888 143.33399481 60.28089723 145.94207121 60.3125 148.55078125 C60.41425992 164.44346286 58.47651247 179.70677445 53.8125 194.9375 C53.51206787 195.93837646 53.21163574 196.93925293 52.90209961 197.97045898 C48.14708152 213.42457361 42.00083256 227.9559854 34 242 C33.67 241.34 33.34 240.68 33 240 C33.96356936 237.46331899 34.99130467 234.99096926 36.0625 232.5 C39.2310695 224.75647348 41.44478414 216.96339446 43.3125 208.8125 C43.55427979 207.76964844 43.79605957 206.72679687 44.04516602 205.65234375 C47.21341517 191.33217004 48.32900008 177.52659321 48.26074219 162.9128418 C48.25005491 160.20143058 48.26068378 157.49068771 48.2734375 154.77929688 C48.2866565 139.84741507 47.4501897 125.02961131 43.75 110.5 C43.53166504 109.62384033 43.31333008 108.74768066 43.08837891 107.8449707 C33.50868425 70.3499238 14.81422908 37.77188011 -12 10 C-12.598125 9.3503125 -13.19625 8.700625 -13.8125 8.03125 C-19.0284449 2.5023484 -25.14643523 -2.03428126 -31.18554688 -6.61669922 C-32.84990706 -7.88557231 -34.49623579 -9.17800654 -36.140625 -10.47265625 C-54.95178023 -24.72002136 -76.48995575 -33.45529533 -99 -40 C-99.82419434 -40.24073242 -100.64838867 -40.48146484 -101.49755859 -40.72949219 C-116.94374177 -45.14075727 -132.22370887 -46.38523915 -148.1875 -46.3125 C-149.40448578 -46.31026428 -149.40448578 -46.31026428 -150.64605713 -46.3079834 C-162.97268967 -46.26732247 -174.93747892 -45.74767294 -187 -43 C-188.26070312 -42.7215625 -189.52140625 -42.443125 -190.8203125 -42.15625 C-194.59073066 -41.22765445 -198.2966564 -40.16153198 -202 -39 C-202.73621582 -38.7736084 -203.47243164 -38.5472168 -204.23095703 -38.31396484 C-223.91688478 -32.16084321 -242.33738839 -23.17783062 -259 -11 C-259.55445801 -10.59958496 -260.10891602 -10.19916992 -260.68017578 -9.78662109 C-304.8345482 22.31742187 -332.77418172 71.25549112 -342.0390625 124.7265625 C-347.56506071 160.08195405 -344.82051792 202.21666541 -329.6015625 235.15234375 C-329 237 -329 237 -330 240 C-355.03657869 191.03957946 -362.13773993 135.77326783 -345.43359375 82.95703125 C-335.67491232 53.28014278 -319.54038593 27.52504567 -298 5 C-297.12601563 4.07316406 -296.25203125 3.14632812 -295.3515625 2.19140625 C-288.94735242 -4.42878159 -282.12606981 -10.16203743 -274.76318359 -15.67675781 C-273.08730314 -16.93448034 -271.42850494 -18.2123063 -269.76953125 -19.4921875 C-199.48126869 -72.701654 -94.2493676 -70.93153569 0 0 Z " fill="#10233E" transform="translate(398,97)"/>
<path d="M0 0 C3.48654476 1.4841373 5.64191072 3.46214052 8.25 6.1875 C11.03860468 9.0442302 13.83306873 11.78998433 16.875 14.375 C20.24557765 17.26214819 23.38503521 20.34247378 26.5 23.5 C29.55337286 26.59492241 32.62323732 29.61934317 35.9375 32.4375 C40.03823982 35.93197027 43.77809514 39.74710962 47.55810547 43.57983398 C51.02039197 47.07247206 54.58410423 50.36622801 58.37890625 53.5 C60.19098666 55.17672019 61.54217472 57.01314369 63 59 C62.39613464 59.00364563 61.79226929 59.00729126 61.17010498 59.01104736 C34.92584933 59.18456614 8.71334851 59.4218765 -17.4375 61.8125 C-18.31805054 61.88932007 -19.19860107 61.96614014 -20.10583496 62.04528809 C-36.49462323 63.5061336 -51.63373454 66.64531094 -66.9375 72.8125 C-69.00642052 73.63829231 -71.07791267 74.45768105 -73.15234375 75.26953125 C-74.03913818 75.62635986 -74.92593262 75.98318848 -75.83959961 76.35083008 C-78 77 -78 77 -80 76 C-78.61518433 75.08504761 -78.61518433 75.08504761 -77.20239258 74.15161133 C-72.12535107 70.31050013 -67.85498973 66.38132045 -66.25042725 60.0355835 C-65.17530267 51.61731554 -65.47670924 43.15201602 -65.6875 34.6875 C-65.70451373 32.09703744 -65.71563491 29.5065291 -65.72070312 26.91601562 C-65.73483931 20.60522007 -65.87001885 14.31367446 -66 8 C-57.42 8 -48.84 8 -40 8 C-39.505 22.355 -39.505 22.355 -39 37 C-37.185 35.164375 -35.37 33.32875 -33.5 31.4375 C-30.09148514 28.01022183 -26.6862611 24.63175996 -23 21.5 C-18.89432454 18.01146156 -15.16046466 14.18830391 -11.37792969 10.35839844 C-7.74191927 6.69440076 -3.99801131 3.27110016 0 0 Z " fill="#FAFAFB" transform="translate(175,224)"/>
<path d="M0 0 C0 54.78 0 109.56 0 166 C-20 161 -20 161 -21 160 C-21.09381302 158.15881971 -21.11743954 156.31402359 -21.11352539 154.47045898 C-21.11344986 153.28931015 -21.11337433 152.10816132 -21.11329651 150.89122009 C-21.10813522 149.6058284 -21.10297394 148.32043671 -21.09765625 146.99609375 C-21.0962413 145.68794205 -21.09482635 144.37979034 -21.09336853 143.03199768 C-21.0895441 139.54837141 -21.07971446 136.06478661 -21.06866455 132.58117676 C-21.05844882 129.02873292 -21.05387056 125.47628241 -21.04882812 121.92382812 C-21.03809212 114.94920168 -21.0210166 107.97460283 -21 101 C-21.88945312 100.71382813 -22.77890625 100.42765625 -23.6953125 100.1328125 C-26.50872443 99.16840415 -29.17071014 98.10422266 -31.875 96.875 C-32.65617188 96.52179688 -33.43734375 96.16859375 -34.2421875 95.8046875 C-34.82226562 95.53914063 -35.40234375 95.27359375 -36 95 C-36.25574417 86.28988393 -36.45074481 77.58107391 -36.56993389 68.86801243 C-36.6271646 64.82121551 -36.70466421 60.77700025 -36.82983398 56.73168945 C-36.95005087 52.8216293 -37.01526077 48.91403808 -37.04364967 45.00227165 C-37.06385609 43.51608342 -37.10332214 42.03001907 -37.16303062 40.54489326 C-37.61021883 28.95268903 -37.61021883 28.95268903 -33.65563965 24.1570282 C-30.87063313 21.85370805 -28.06334998 19.91165607 -25 18 C-23.30547907 16.74597567 -21.61887403 15.48108068 -19.9453125 14.19921875 C-18.34077938 13.02558041 -16.73403078 11.85496452 -15.125 10.6875 C-13.50191258 9.50485482 -11.87949651 8.32128761 -10.2578125 7.13671875 C-9.51692383 6.5957959 -8.77603516 6.05487305 -8.01269531 5.49755859 C-6.31002175 4.23067363 -4.64626558 2.91173817 -2.9921875 1.58203125 C-1 0 -1 0 0 0 Z " fill="#0C203B" transform="translate(231,60)"/>
<path d="M0 0 C3.006818 1.33999498 4.99762609 2.79845291 7.25 5.1875 C9.66042029 7.67452263 12.11175214 10.00640807 14.75 12.25 C18.1583848 15.18279622 21.34399164 18.30072901 24.5 21.5 C27.57389519 24.61580242 30.66702214 27.65877297 34 30.5 C37.33297901 33.34122801 40.42608801 36.38421623 43.5 39.5 C46.55337951 42.59491502 49.62323685 45.61934277 52.9375 48.4375 C57.03559709 51.92971826 60.77143408 55.74337975 64.55151367 59.57104492 C68.53333856 63.58343556 72.66000274 67.37482582 77 71 C73.53259465 72.15580178 73.13226067 71.88268172 69.93359375 70.48828125 C29.9087086 54.34147059 -18.56317776 59.20061547 -61 59 C-60.04813307 57.88280721 -59.09531086 56.76642829 -58.14208984 55.65039062 C-57.34634048 54.71773376 -57.34634048 54.71773376 -56.53451538 53.76623535 C-52.11764563 48.68239481 -47.23666736 44.00343638 -42.125 39.625 C-38.75442257 36.737852 -35.61496136 33.65753002 -32.5 30.5 C-28.83153141 26.78153524 -25.06850777 23.2633181 -21.09375 19.875 C-18.46014788 17.51655034 -15.98170229 15.01557641 -13.5 12.5 C-9.16600959 8.11765265 -4.71975378 3.96242939 0 0 Z " fill="#FBFBFB" transform="translate(319,224)"/>
<path d="M0 0 C0 30.69 0 61.38 0 93 C-10.125 96.375 -10.125 96.375 -14.47265625 97.38671875 C-15.39111328 97.60263672 -16.30957031 97.81855469 -17.25585938 98.04101562 C-18.18205078 98.25435547 -19.10824219 98.46769531 -20.0625 98.6875 C-21.50399414 99.02491211 -21.50399414 99.02491211 -22.97460938 99.36914062 C-25.31555702 99.91652639 -27.65732308 100.46007241 -30 101 C-30.34881013 90.76037941 -30.61468105 80.52218835 -30.77718258 70.27781963 C-30.85521544 65.51957432 -30.96085586 60.76541454 -31.1315918 56.00952148 C-31.29559292 51.4120164 -31.38445332 46.81841589 -31.42315865 42.21821022 C-31.45070382 40.47108263 -31.50450808 38.72415013 -31.58595085 36.97870445 C-32.1812102 23.68239829 -32.1812102 23.68239829 -28.52851868 19.19040871 C-24.95309483 15.88712087 -20.98227287 13.36666874 -16.74648857 10.99619293 C-14.54007115 9.73765768 -12.52817205 8.27435228 -10.5078125 6.73828125 C-9.38083457 5.92881492 -8.25327848 5.12015258 -7.125 4.3125 C-6.53332031 3.88517578 -5.94164062 3.45785156 -5.33203125 3.01757812 C-1.11807785 0 -1.11807785 0 0 0 Z " fill="#0E223C" transform="translate(315,119)"/>
<path d="M0 0 C0.34953519 9.7966022 0.61503902 19.5916931 0.77718258 29.39328957 C0.8550627 33.9464188 0.96040641 38.49524603 1.1315918 43.04589844 C2.29964744 74.90604488 2.29964744 74.90604488 -3.26513672 82.51464844 C-6.715157 86.15423556 -10.50832728 88.80542965 -15 91 C-16.98 91.99 -16.98 91.99 -19 93 C-19 87.06 -19 81.12 -19 75 C-22.96 75 -26.92 75 -31 75 C-31.32275065 67.4930873 -31.55786701 59.99025401 -31.71411133 52.47802734 C-31.77926488 49.92653026 -31.86782036 47.3755145 -31.98071289 44.82568359 C-32.9452341 22.47148618 -32.9452341 22.47148618 -28.35375977 17.25732422 C-25.20805845 14.52637174 -21.73970294 12.79965683 -18 11 C-16.41075334 9.90482204 -14.8404132 8.78108318 -13.30078125 7.6171875 C-11.97388759 6.69945125 -10.64456115 5.7852196 -9.3125 4.875 C-8.62478516 4.39546875 -7.93707031 3.9159375 -7.22851562 3.421875 C-2.2472433 0 -2.2472433 0 0 0 Z " fill="#0C203B" transform="translate(164,145)"/>
<path d="M0 0 C-1.375 1.5 -1.375 1.5 -3 3 C-3.66 3 -4.32 3 -5 3 C-5.268125 3.639375 -5.53625 4.27875 -5.8125 4.9375 C-7 7 -7 7 -10 8 C-10.33 8.99 -10.66 9.98 -11 11 C-12.56640625 12.54296875 -12.56640625 12.54296875 -14.5625 14.1875 C-18.39385524 17.41826442 -21.88071398 20.86879734 -25.3359375 24.49609375 C-27 26 -27 26 -29 26 C-29.495 27.485 -29.495 27.485 -30 29 C-31.56640625 30.54296875 -31.56640625 30.54296875 -33.5625 32.1875 C-37.39385524 35.41826442 -40.88071398 38.86879734 -44.3359375 42.49609375 C-46 44 -46 44 -48 44 C-48.33 44.99 -48.66 45.98 -49 47 C-50.6015625 48.578125 -50.6015625 48.578125 -52.625 50.25 C-55.41472827 52.61130572 -58.06917128 55.01212153 -60.625 57.625 C-63.6056535 60.64657781 -66.63050586 63.41410915 -70 66 C-70.66 66 -71.32 66 -72 66 C-72 49.5 -72 33 -72 16 C-66.72 14.68 -61.44 13.36 -56 12 C-52.56716131 11.13903736 -52.56716131 11.13903736 -49.13453674 10.27722168 C-46.20526307 9.5413773 -43.2755907 8.80712455 -40.34594727 8.07275391 C-38.82533342 7.69134045 -37.30482526 7.30950542 -35.78442383 6.92724609 C-31.2839184 5.79596095 -26.78136256 4.67354602 -22.2756958 3.56298828 C-20.71749053 3.17750121 -19.16002705 2.78900677 -17.60321045 2.39794922 C-15.25687373 1.80950984 -12.90812916 1.23176596 -10.55859375 0.65625 C-9.8426857 0.4744519 -9.12677765 0.29265381 -8.38917542 0.10534668 C-5.06511127 -0.69773758 -3.31232745 -1.10410915 0 0 Z " fill="#DB2D2D" transform="translate(319,215)"/>
<path d="M0 0 C4.08985846 0.00020694 8.1790509 -0.02756625 12.26874924 -0.06154442 C15.44628084 -0.08370398 18.62364566 -0.08784164 21.80124664 -0.08678055 C23.31156047 -0.08913483 24.82187901 -0.09794869 26.33211517 -0.11344528 C28.42259584 -0.13296903 30.51154734 -0.12733351 32.60205078 -0.11523438 C33.78732361 -0.11808441 34.97259644 -0.12093445 36.19378662 -0.12387085 C39.09521484 0.37060547 39.09521484 0.37060547 41.0010376 2.40097046 C41.36211609 3.05095001 41.72319458 3.70092957 42.09521484 4.37060547 C38.92876335 4.64413024 35.76208054 4.91443914 32.59521484 5.18310547 C31.54060059 5.27366211 30.48598633 5.36421875 29.39941406 5.45751953 C22.62644445 6.02773435 15.85456232 6.52611148 9.07177734 6.96044922 C-23.19009198 9.06667558 -55.46866304 12.56339272 -86.90478516 20.37060547 C-84.92478516 20.70060547 -82.94478516 21.03060547 -80.90478516 21.37060547 C-80.40978516 23.84560547 -80.40978516 23.84560547 -79.90478516 26.37060547 C-78.85291016 25.16404297 -78.85291016 25.16404297 -77.77978516 23.93310547 C-74.64186923 21.13626736 -73.01719753 20.65751796 -68.90478516 20.37060547 C-68.90478516 24.33060547 -68.90478516 28.29060547 -68.90478516 32.37060547 C-69.99791016 32.63873047 -71.09103516 32.90685547 -72.21728516 33.18310547 C-76.21344788 34.46368859 -76.21344788 34.46368859 -78.90478516 37.37060547 C-80.0794796 39.71999435 -80.10513404 41.32133751 -80.22119141 43.94091797 C-80.2840332 45.28476562 -80.2840332 45.28476562 -80.34814453 46.65576172 C-80.38746094 47.59291016 -80.42677734 48.53005859 -80.46728516 49.49560547 C-80.53206055 50.91292969 -80.53206055 50.91292969 -80.59814453 52.35888672 C-80.70437455 54.69594719 -80.80509787 57.03325677 -80.90478516 59.37060547 C-84.53478516 59.37060547 -88.16478516 59.37060547 -91.90478516 59.37060547 C-91.90478516 46.83060547 -91.90478516 34.29060547 -91.90478516 21.37060547 C-102.43460269 23.84820959 -112.70760314 26.35612403 -123.00634766 29.52099609 C-123.86744141 29.776875 -124.72853516 30.03275391 -125.61572266 30.29638672 C-126.37159668 30.52753174 -127.1274707 30.75867676 -127.90625 30.99682617 C-129.90478516 31.37060547 -129.90478516 31.37060547 -132.90478516 30.37060547 C-124.59836984 26.12252759 -116.3282172 21.98512619 -107.66259766 18.50732422 C-105.04256663 17.42739642 -102.51704507 16.23052054 -99.96728516 14.99560547 C-68.2424935 0.55031128 -34.23952837 -0.00925831 0 0 Z " fill="#11243E" transform="translate(200.90478515625,283.62939453125)"/>
<path d="M0 0 C6.95027765 0.61494226 13.48645979 1.93710286 20.25 3.625 C22.44527795 4.16290144 24.64059205 4.70065537 26.8359375 5.23828125 C27.98932617 5.52268066 29.14271484 5.80708008 30.33105469 6.10009766 C34.21005246 7.05152072 38.09255153 7.9872802 41.9765625 8.91796875 C43.30566615 9.2368077 44.63476773 9.55565529 45.96386719 9.87451172 C48.53994435 10.49242158 51.11613654 11.10984571 53.69238281 11.72705078 C55.44953613 12.15026611 55.44953613 12.15026611 57.2421875 12.58203125 C58.2822998 12.83186768 59.32241211 13.0817041 60.39404297 13.33911133 C63 14 63 14 66 15 C66 31.17 66 47.34 66 64 C60.46705684 59.85029263 55.72966478 55.96344703 51 51.0625 C46.79576532 46.77815287 42.57395213 42.64820362 37.98828125 38.76953125 C34.87715998 36.00069444 31.98928921 33.00956889 29.06567383 30.04614258 C25.86840802 26.82229289 22.55518333 23.8247858 19.1015625 20.8828125 C15.91801411 18.03063718 12.94354196 14.97229543 9.94995117 11.92382812 C7.50949375 9.4536563 5.05026061 7.13584161 2.3125 5 C1.549375 4.34 0.78625 3.68 0 3 C0 2.01 0 1.02 0 0 Z " fill="#600505" transform="translate(181,216)"/>
<path d="M0 0 C0.72757004 -0.0049649 1.45514008 -0.00992981 2.20475769 -0.01504517 C4.63252713 -0.02973227 7.06023034 -0.03649428 9.48803711 -0.04199219 C10.74740994 -0.04623325 10.74740994 -0.04623325 12.03222466 -0.05056 C16.51172069 -0.06561044 20.99118429 -0.0747914 25.47070312 -0.07910156 C29.11175954 -0.08341684 32.75256965 -0.09702198 36.39355469 -0.12011719 C54.71642188 -0.23383871 72.96180635 -0.17068296 91.22631836 1.43457031 C93.17411949 1.59865387 93.17411949 1.59865387 95.16127014 1.76605225 C109.48620306 3.18671451 128.99879266 6.86844464 139.52172852 17.78930664 C141.64169014 19.82138859 143.49583451 19.54672296 146.39038086 19.72363281 C156.47770496 20.99312598 165.13591636 26.3662892 173.95288086 31.16113281 C170.65311245 32.26105562 169.93278538 32.08957314 166.73413086 31.12207031 C165.89406494 30.87376465 165.05399902 30.62545898 164.18847656 30.36962891 C163.28572998 30.0945752 162.3829834 29.81952148 161.45288086 29.53613281 C159.54057379 28.97209349 157.62780299 28.40962432 155.71459961 27.84863281 C154.26512939 27.42130859 154.26512939 27.42130859 152.78637695 26.98535156 C148.6281411 25.77578718 144.45214193 24.6423547 140.26538086 23.53613281 C139.59249023 23.3548584 138.91959961 23.17358398 138.22631836 22.98681641 C122.96460036 18.96889205 107.53121779 16.06099308 91.95288086 13.59863281 C90.5179126 13.37077087 90.5179126 13.37077087 89.05395508 13.13830566 C71.87043381 10.43159518 54.75427778 8.51941015 37.40270996 7.32977295 C34.67405245 7.14193896 31.94578901 6.94889544 29.2175293 6.75537109 C16.46506334 5.85327273 3.7102071 4.99150712 -9.04711914 4.16113281 C-9.04711914 3.17113281 -9.04711914 2.18113281 -9.04711914 1.16113281 C-6.05888892 -0.3329823 -3.33371895 0.01728088 0 0 Z " fill="#10233D" transform="translate(263.047119140625,283.8388671875)"/>
<path d="M0 0 C5.15085024 2.71038189 7.92633526 6.91572453 9.7265625 12.31640625 C9.7265625 15.61640625 9.7265625 18.91640625 9.7265625 22.31640625 C1.1465625 22.31640625 -7.4334375 22.31640625 -16.2734375 22.31640625 C-13.95092324 27.2013615 -13.95092324 27.2013615 -11.2734375 28.31640625 C-6.24450429 28.74124737 -1.8417907 28.67426597 2.7265625 26.31640625 C5.2015625 28.29640625 5.2015625 28.29640625 7.7265625 30.31640625 C5.99063575 34.42735716 4.11476562 35.73473386 0.13671875 37.546875 C-5.10373588 39.22008337 -10.47089674 39.45800883 -15.61328125 37.36328125 C-21.43289734 33.93870269 -25.05729736 29.72170581 -27.2734375 23.31640625 C-28.22010898 16.64984607 -27.6862389 11.48386955 -23.7109375 5.97265625 C-17.42344845 -1.27162461 -9.19305962 -2.76423614 0 0 Z " fill="#132640" transform="translate(161.2734375,305.68359375)"/>
<path d="M0 0 C3.46951595 2.26272779 4.86437986 4.26088635 6.875 7.875 C7.32910156 11.21826172 7.32910156 11.21826172 7.265625 14.8046875 C7.25273437 16.09375 7.23984375 17.3828125 7.2265625 18.7109375 C7.19314906 20.05730268 7.15928937 21.40365685 7.125 22.75 C7.10491356 24.11976569 7.08666655 25.48955966 7.0703125 26.859375 C7.0232806 30.19863986 6.95755864 33.53645562 6.875 36.875 C3.575 36.875 0.275 36.875 -3.125 36.875 C-3.455 35.885 -3.785 34.895 -4.125 33.875 C-4.723125 34.349375 -5.32125 34.82375 -5.9375 35.3125 C-9.91742496 38.15530354 -13.34789602 38.19887146 -18.125 37.875 C-22.34352374 36.25249087 -24.75893447 34.71389018 -27.125 30.875 C-27.98620395 26.10346462 -27.82834178 22.08072876 -25.375 17.875 C-21.1669893 14.13454605 -18.18888488 13.61709018 -12.5625 13.6875 C-10.85900391 13.69716797 -10.85900391 13.69716797 -9.12109375 13.70703125 C-6.125 13.875 -6.125 13.875 -3.125 14.875 C-4.24354586 11.14885847 -4.24354586 11.14885847 -7.125 8.875 C-8.9145469 8.77842128 -10.70785534 8.74519532 -12.5 8.75 C-13.45648438 8.74742187 -14.41296875 8.74484375 -15.3984375 8.7421875 C-17.80640854 8.85948122 -19.82490068 9.18824049 -22.125 9.875 C-23.62321059 6.50402617 -24.125 4.67057881 -24.125 0.875 C-16.76025508 -1.93862401 -7.55258271 -2.76873423 0 0 Z " fill="#10243E" transform="translate(269.125,306.125)"/>
<path d="M0 0 C3.63 0 7.26 0 11 0 C11.33 1.32 11.66 2.64 12 4 C12.598125 3.34 13.19625 2.68 13.8125 2 C18.44775943 -0.90839807 22.66045749 -0.80293872 28 0 C31.66955419 2.09688811 33.48617666 4.10304545 35 8 C35.22705078 11.20800781 35.22705078 11.20800781 35.1953125 14.953125 C35.1924826 15.61334656 35.18965271 16.27356812 35.18673706 16.95379639 C35.17558415 19.05271897 35.15048946 21.15120742 35.125 23.25 C35.11496384 24.67707715 35.1058391 26.10416102 35.09765625 27.53125 C35.07566111 31.02097328 35.04116536 34.51044423 35 38 C31.37 38 27.74 38 24 38 C23.98541748 37.22285645 23.97083496 36.44571289 23.95581055 35.64501953 C23.88153022 32.13783312 23.78480411 28.6316199 23.6875 25.125 C23.66494141 23.90167969 23.64238281 22.67835938 23.61914062 21.41796875 C23.5659668 19.66806641 23.5659668 19.66806641 23.51171875 17.8828125 C23.48553467 16.80402832 23.45935059 15.72524414 23.43237305 14.61376953 C23.28968994 13.75122559 23.14700684 12.88868164 23 12 C19.76746204 9.84497469 18.74849077 9.53143865 15 10 C13.26314258 11.11552204 13.26314258 11.11552204 12 13 C11.49454132 15.70484875 11.49454132 15.70484875 11.48828125 18.76171875 C11.45283203 19.87998047 11.41738281 20.99824219 11.38085938 22.15039062 C11.34702148 23.90125977 11.34702148 23.90125977 11.3125 25.6875 C11.27833984 26.86634766 11.24417969 28.04519531 11.20898438 29.25976562 C11.12642761 32.17284019 11.06153987 35.08640568 11 38 C7.37 38 3.74 38 0 38 C0 25.46 0 12.92 0 0 Z " fill="#11253F" transform="translate(176,305)"/>
<path d="M0 0 C2.64 0 5.28 0 8 0 C8 11.88 8 23.76 8 36 C5.36 36 2.72 36 0 36 C-0.33 35.34 -0.66 34.68 -1 34 C-1.66 34.66 -2.32 35.32 -3 36 C-6.38416533 36.56901895 -9.61215021 36.52818445 -13 36 C-16.27350867 33.5448685 -18.76270989 30.93683218 -20 27 C-20.45042231 21.41476332 -20.25122574 17.76846442 -17 13 C-13.88880113 10.3727654 -11.93145679 9.11177481 -7.875 8.625 C-5 9 -5 9 -1 11 C-0.67 7.37 -0.34 3.74 0 0 Z " fill="#DD3131" transform="translate(369,305)"/>
<path d="M0 0 C3.63 0 7.26 0 11 0 C11 3.3 11 6.6 11 10 C13.97 10 16.94 10 20 10 C20 12.97 20 15.94 20 19 C17.03 19 14.06 19 11 19 C11.33 25.27 11.66 31.54 12 38 C14.64 38 17.28 38 20 38 C20 40.97 20 43.94 20 47 C16.88308576 48.03897141 14.40028874 48.30273126 11.125 48.4375 C10.09632813 48.49808594 9.06765625 48.55867188 8.0078125 48.62109375 C4.63742084 47.92512976 2.97400387 46.84964732 0.91992188 44.06567383 C-1.0415101 39.66130122 -0.50149068 34.8468594 -0.3125 30.125 C-0.28994141 29.05507813 -0.26738281 27.98515625 -0.24414062 26.8828125 C-0.18545633 24.25375593 -0.1034118 21.62761418 0 19 C-1.32 19 -2.64 19 -4 19 C-4 16.03 -4 13.06 -4 10 C-2.68 10 -1.36 10 0 10 C0 6.7 0 3.4 0 0 Z " fill="#132640" transform="translate(219,295)"/>
<path d="M0 0 C3.63 0 7.26 0 11 0 C11 17.16 11 34.32 11 52 C7.37 52 3.74 52 0 52 C0 34.84 0 17.68 0 0 Z " fill="#132640" transform="translate(283,291)"/>
<path d="M0 0 C1.32 0.33 2.64 0.66 4 1 C4 44.56 4 88.12 4 133 C2.68 133 1.36 133 0 133 C0 89.11 0 45.22 0 0 Z " fill="#11253F" transform="translate(244,96)"/>
<path d="M0 0 C1.22332031 -0.03738281 2.44664062 -0.07476562 3.70703125 -0.11328125 C7.7612799 0.38269305 9.32793139 1.46350281 12.1875 4.3125 C13.38779908 6.71309817 13.30209743 8.20610649 13.28515625 10.8828125 C13.28193359 11.77871094 13.27871094 12.67460937 13.27539062 13.59765625 C13.26701172 14.53480469 13.25863281 15.47195313 13.25 16.4375 C13.24548828 17.38238281 13.24097656 18.32726562 13.23632812 19.30078125 C13.22452357 21.63808387 13.20805759 23.97526061 13.1875 26.3125 C10.8775 26.3125 8.5675 26.3125 6.1875 26.3125 C5.8575 25.6525 5.5275 24.9925 5.1875 24.3125 C4.1975 24.9725 3.2075 25.6325 2.1875 26.3125 C-2.07013793 26.98682203 -5.65716258 27.01697403 -9.375 24.75 C-11.40175458 21.31332919 -11.4323676 19.23832814 -10.8125 15.3125 C-9 12.375 -9 12.375 -5.8125 10.3125 C-2.10691128 9.90655067 1.4763722 10.02002933 5.1875 10.3125 C5.1875 9.3225 5.1875 8.3325 5.1875 7.3125 C3.92292969 7.36470703 3.92292969 7.36470703 2.6328125 7.41796875 C1.53710938 7.44503906 0.44140625 7.47210938 -0.6875 7.5 C-2.32332031 7.55220703 -2.32332031 7.55220703 -3.9921875 7.60546875 C-4.92289062 7.50878906 -5.85359375 7.41210938 -6.8125 7.3125 C-8.8125 4.3125 -8.8125 4.3125 -8.8125 1.3125 C-5.89002427 -0.14873786 -3.25396161 0.0647385 0 0 Z " fill="#DD2F2F" transform="translate(390.8125,314.6875)"/>
<path d="M0 0 C1.22332031 -0.03738281 2.44664062 -0.07476562 3.70703125 -0.11328125 C7.7612799 0.38269305 9.32793139 1.46350281 12.1875 4.3125 C13.38779908 6.71309817 13.30209743 8.20610649 13.28515625 10.8828125 C13.28193359 11.77871094 13.27871094 12.67460937 13.27539062 13.59765625 C13.26701172 14.53480469 13.25863281 15.47195313 13.25 16.4375 C13.24548828 17.38238281 13.24097656 18.32726562 13.23632812 19.30078125 C13.22452357 21.63808387 13.20805759 23.97526061 13.1875 26.3125 C10.8775 26.3125 8.5675 26.3125 6.1875 26.3125 C5.8575 25.6525 5.5275 24.9925 5.1875 24.3125 C4.1975 24.9725 3.2075 25.6325 2.1875 26.3125 C-2.07013793 26.98682203 -5.65716258 27.01697403 -9.375 24.75 C-11.40175458 21.31332919 -11.4323676 19.23832814 -10.8125 15.3125 C-9 12.375 -9 12.375 -5.8125 10.3125 C-2.10691128 9.90655067 1.4763722 10.02002933 5.1875 10.3125 C5.1875 9.3225 5.1875 8.3325 5.1875 7.3125 C3.92292969 7.36470703 3.92292969 7.36470703 2.6328125 7.41796875 C1.53710938 7.44503906 0.44140625 7.47210938 -0.6875 7.5 C-2.32332031 7.55220703 -2.32332031 7.55220703 -3.9921875 7.60546875 C-4.92289062 7.50878906 -5.85359375 7.41210938 -6.8125 7.3125 C-8.8125 4.3125 -8.8125 4.3125 -8.8125 1.3125 C-5.89002427 -0.14873786 -3.25396161 0.0647385 0 0 Z " fill="#DD2F2F" transform="translate(332.8125,314.6875)"/>
<path d="M0 0 C1.32 0 2.64 0 4 0 C4 41.25 4 82.5 4 125 C2.02 125.495 2.02 125.495 0 126 C0 84.42 0 42.84 0 0 Z " fill="#10233E" transform="translate(256,101)"/>
<path d="M0 0 C1.32 0.33 2.64 0.66 4 1 C4 39.61 4 78.22 4 118 C2.02 118.495 2.02 118.495 0 119 C0 79.73 0 40.46 0 0 Z " fill="#142741" transform="translate(268,105)"/>
<path d="M0 0 C1.32 0.33 2.64 0.66 4 1 C4 28.06 4 55.12 4 83 C2.68 82.01 1.36 81.02 0 80 C-0.38196971 77.30179671 -0.50670322 75.01239296 -0.45410156 72.31567383 C-0.45468567 71.5349501 -0.45526978 70.75422638 -0.45587158 69.94984436 C-0.45308411 67.36845484 -0.42196213 64.7882191 -0.390625 62.20703125 C-0.38316494 60.4177056 -0.3774709 58.62837178 -0.37347412 56.83903503 C-0.35819924 52.12880915 -0.31890162 47.41907641 -0.2746582 42.70904541 C-0.23374536 37.90310335 -0.21547164 33.09708163 -0.1953125 28.29101562 C-0.15240904 18.86046038 -0.0841354 9.43027119 0 0 Z " fill="#25364E" transform="translate(350,156)"/>
<path d="M0 0 C1.32 0.33 2.64 0.66 4 1 C4 25.42 4 49.84 4 75 C2.68 74.34 1.36 73.68 0 73 C0 48.91 0 24.82 0 0 Z " fill="#20324B" transform="translate(337,152)"/>
<path d="M0 0 C0.99 0.33 1.98 0.66 3 1 C2.34 1 1.68 1 1 1 C1 42.58 1 84.16 1 127 C2.98 126.505 2.98 126.505 5 126 C5 125.34 5 124.68 5 124 C6.65 124 8.3 124 10 124 C10 124.66 10 125.32 10 126 C10.99 126.495 10.99 126.495 12 127 C9.19104563 127.70602629 6.37947712 128.38988844 3.5625 129.0625 C2.77939453 129.26166016 1.99628906 129.46082031 1.18945312 129.66601562 C-9.70197127 132.22079419 -19.40363618 129.09144613 -30.0625 126.4375 C-31.41849231 126.10429849 -32.77461133 125.77161218 -34.13085938 125.43945312 C-37.42185101 124.63134486 -40.7114728 123.81806854 -44 123 C-40.90770137 121.1944325 -40.27868759 120.94483317 -36.56640625 121.6796875 C-35.22906963 122.06896234 -33.89452536 122.46792191 -32.5625 122.875 C-25.27058096 124.92627188 -18.59667926 125.46828845 -11 125 C-11 126.32 -11 127.64 -11 129 C-9.68 129 -8.36 129 -7 129 C-7 127.35 -7 125.7 -7 124 C-4.69 124 -2.38 124 0 124 C0 83.08 0 42.16 0 0 Z " fill="#E7E9EB" transform="translate(255,100)"/>
<path d="M0 0 C1.32 0 2.64 0 4 0 C4 22.44 4 44.88 4 68 C2.68 67.34 1.36 66.68 0 66 C0 44.22 0 22.44 0 0 Z " fill="#11243F" transform="translate(325,148)"/>
<path d="M0 0 C0 2.64 0 5.28 0 8 C-1.134375 8.45375 -2.26875 8.9075 -3.4375 9.375 C-7.04721692 10.57095806 -7.04721692 10.57095806 -8 13 C-8.23029956 15.37123246 -8.41119942 17.74741943 -8.5625 20.125 C-8.64628906 21.40632813 -8.73007812 22.68765625 -8.81640625 24.0078125 C-8.90728516 25.48894531 -8.90728516 25.48894531 -9 27 C-11.31 27 -13.62 27 -16 27 C-16 18.42 -16 9.84 -16 1 C-13.69 1 -11.38 1 -9 1 C-8.67 1.99 -8.34 2.98 -8 4 C-7.4225 3.34 -6.845 2.68 -6.25 2 C-4 0 -4 0 0 0 Z " fill="#DC2A2A" transform="translate(321,314)"/>
<path d="M0 0 C1.32 0.33 2.64 0.66 4 1 C4 12.88 4 24.76 4 37 C2.02 37.495 2.02 37.495 0 38 C0 25.46 0 12.92 0 0 Z " fill="#132641" transform="translate(174,174)"/>
<path d="M0 0 C1.875 1 1.875 1 3 3 C3.53967465 6.59783102 3.68523932 9.78179676 1.875 13 C-0.89815624 14.47901666 -2.91184125 14.38601984 -6 14 C-7.875 13 -7.875 13 -9 11 C-9.53967465 7.40216898 -9.68523932 4.21820324 -7.875 1 C-5.10184376 -0.47901666 -3.08815875 -0.38601984 0 0 Z " fill="#FEFAFA" transform="translate(366,321)"/>
<path d="M0 0 C1.32 0.33 2.64 0.66 4 1 C4 12.55 4 24.1 4 36 C2.68 35.67 1.36 35.34 0 35 C0 23.45 0 11.9 0 0 Z " fill="#132640" transform="translate(186,179)"/>
<path d="M0 0 C1.32 0.33 2.64 0.66 4 1 C4 11.89 4 22.78 4 34 C2.68 33.67 1.36 33.34 0 33 C0 22.11 0 11.22 0 0 Z " fill="#22344D" transform="translate(198,184)"/>
<path d="M0 0 C0.66 0.33 1.32 0.66 2 1 C2.48 6.4 2.48 6.4 0.5 8.875 C-3.2052736 10.54237312 -5.94563169 10.32696519 -10 10 C-12 8 -12 8 -12.375 5.5625 C-12 3 -12 3 -10.5 1.1875 C-6.82968061 -0.55590171 -4.05176567 -0.26140424 0 0 Z " fill="#EFF1F2" transform="translate(264,326)"/>
<path d="M0 0 C0.8146875 0.00257813 1.629375 0.00515625 2.46875 0.0078125 C3.2834375 0.00523437 4.098125 0.00265625 4.9375 0 C6.96875 0.1328125 6.96875 0.1328125 7.96875 1.1328125 C8.04080511 2.81890216 8.05261068 4.50781909 8.03125 6.1953125 C8.02222656 7.11441406 8.01320313 8.03351563 8.00390625 8.98046875 C7.99230469 9.69074219 7.98070312 10.40101563 7.96875 11.1328125 C6.32300434 11.15969401 4.67713587 11.17915373 3.03125 11.1953125 C2.11472656 11.20691406 1.19820313 11.21851563 0.25390625 11.23046875 C-2.03125 11.1328125 -2.03125 11.1328125 -3.03125 10.1328125 C-3.1291557 8.63543126 -3.16099864 7.13338358 -3.15625 5.6328125 C-3.15882813 4.818125 -3.16140625 4.0034375 -3.1640625 3.1640625 C-2.98414019 0.4123095 -2.751753 0.17992231 0 0 Z " fill="#343434" transform="translate(314.03125,249.8671875)"/>
<path d="M0 0 C3.3 0 6.6 0 10 0 C10 3.63 10 7.26 10 11 C6.7 11 3.4 11 0 11 C0 7.37 0 3.74 0 0 Z " fill="#2D2D2D" transform="translate(326,250)"/>
<path d="M0 0 C3.3 0 6.6 0 10 0 C10 3.63 10 7.26 10 11 C6.7 11 3.4 11 0 11 C0 7.37 0 3.74 0 0 Z " fill="#2D2D2D" transform="translate(178,250)"/>
<path d="M0 0 C3.3 0 6.6 0 10 0 C10 3.63 10 7.26 10 11 C6.7 11 3.4 11 0 11 C0 7.37 0 3.74 0 0 Z " fill="#2D2D2D" transform="translate(164,250)"/>
<path d="M0 0 C3.3 0 6.6 0 10 0 C10 3.3 10 6.6 10 10 C6.7 10 3.4 10 0 10 C0 6.7 0 3.4 0 0 Z " fill="#232323" transform="translate(326,264)"/>
<path d="M0 0 C3.3 0 6.6 0 10 0 C10 3.3 10 6.6 10 10 C6.7 10 3.4 10 0 10 C0 6.7 0 3.4 0 0 Z " fill="#242424" transform="translate(312,264)"/>
<path d="M0 0 C3.3 0 6.6 0 10 0 C10 3.3 10 6.6 10 10 C6.7 10 3.4 10 0 10 C0 6.7 0 3.4 0 0 Z " fill="#222222" transform="translate(178,264)"/>
<path d="M0 0 C3.3 0 6.6 0 10 0 C10 3.3 10 6.6 10 10 C6.7 10 3.4 10 0 10 C0 6.7 0 3.4 0 0 Z " fill="#222222" transform="translate(164,264)"/>
<path d="M0 0 C2.4375 1.75 2.4375 1.75 4 4 C4 5.32 4 6.64 4 8 C-0.95 8 -5.9 8 -11 8 C-10 3 -10 3 -8.875 1.1875 C-5.84814901 -0.72950563 -3.4846244 -0.42793633 0 0 Z " fill="#F7F7F8" transform="translate(156,313)"/>
<path d="M0 0 C3.96 0 7.92 0 12 0 C12 5.94 12 11.88 12 18 C16.48526668 14.12290507 20.87304115 10.25592632 25 6 C25.99 6.33 26.98 6.66 28 7 C23.19764955 12.93974924 17.87953241 18.11699851 12 23 C11.67 23 11.34 23 11 23 C11 15.74 11 8.48 11 1 C7.37 1 3.74 1 0 1 C0 0.67 0 0.34 0 0 Z " fill="#C6CACE" transform="translate(133,220)"/>
<path d="M0 0 C2.83154735 0.52358049 5.53357216 1.14611948 8.3125 1.875 C16.07460952 3.77853157 22.98517221 4.50977703 31 4 C31 5.32 31 6.64 31 8 C31.66 8 32.32 8 33 8 C33 8.66 33 9.32 33 10 C21.25789405 7.60052618 9.6016213 5.00842042 -2 2 C-1.34 1.34 -0.68 0.68 0 0 Z " fill="#DAD1D2" transform="translate(213,221)"/>
<path d="M0 0 C-0.33 0.66 -0.66 1.32 -1 2 C-3.36083984 2.77783203 -3.36083984 2.77783203 -6.4609375 3.5078125 C-8.12769531 3.90419922 -8.12769531 3.90419922 -9.828125 4.30859375 C-10.99859375 4.57800781 -12.1690625 4.84742188 -13.375 5.125 C-14.53773438 5.40214844 -15.70046875 5.67929688 -16.8984375 5.96484375 C-25.56038331 8 -25.56038331 8 -29 8 C-28.67 7.01 -28.34 6.02 -28 5 C-25.74682617 4.09277344 -25.74682617 4.09277344 -22.79296875 3.359375 C-21.73142578 3.09382812 -20.66988281 2.82828125 -19.57617188 2.5546875 C-18.45791016 2.28914062 -17.33964844 2.02359375 -16.1875 1.75 C-15.08083984 1.46898437 -13.97417969 1.18796875 -12.83398438 0.8984375 C-3.79666828 -1.31031973 -3.79666828 -1.31031973 0 0 Z " fill="#E8DBDD" transform="translate(314,214)"/>
<path d="M0 0 C2.64 0 5.28 0 8 0 C8 2.64 8 5.28 8 8 C5.36 8 2.72 8 0 8 C0 5.36 0 2.72 0 0 Z " fill="#DD2B2B" transform="translate(408,333)"/>
<path d="M0 0 C1.65 0 3.3 0 5 0 C5 0.66 5 1.32 5 2 C5.66 2.33 6.32 2.66 7 3 C4.06333774 3.67055285 1.12577641 4.33659053 -1.8125 5 C-3.06256836 5.28617188 -3.06256836 5.28617188 -4.33789062 5.578125 C-5.14033203 5.75859375 -5.94277344 5.9390625 -6.76953125 6.125 C-7.50792236 6.29257813 -8.24631348 6.46015625 -9.00708008 6.6328125 C-11 7 -11 7 -14 7 C-14 6.34 -14 5.68 -14 5 C-13.34 5 -12.68 5 -12 5 C-12 4.01 -12 3.02 -12 2 C-9.36 1.67 -6.72 1.34 -4 1 C-4 1.66 -4 2.32 -4 3 C-2.68 2.67 -1.36 2.34 0 2 C0 1.34 0 0.68 0 0 Z " fill="#F2E5E6" transform="translate(260,224)"/>
<path d="M0 0 C1.23556641 0.01740234 1.23556641 0.01740234 2.49609375 0.03515625 C3.32238281 0.04417969 4.14867187 0.05320312 5 0.0625 C5.63808594 0.07410156 6.27617187 0.08570313 6.93359375 0.09765625 C6.05859375 4.97265625 6.05859375 4.97265625 4.93359375 6.09765625 C2.60061942 6.13858562 0.2665415 6.14007348 -2.06640625 6.09765625 C-2.44859392 4.44150968 -2.78035727 2.77308601 -3.06640625 1.09765625 C-2.06640625 0.09765625 -2.06640625 0.09765625 0 0 Z " fill="#FCF1F1" transform="translate(390.06640625,329.90234375)"/>
<path d="M0 0 C1.23556641 0.01740234 1.23556641 0.01740234 2.49609375 0.03515625 C3.32238281 0.04417969 4.14867187 0.05320312 5 0.0625 C5.63808594 0.07410156 6.27617187 0.08570313 6.93359375 0.09765625 C6.05859375 4.97265625 6.05859375 4.97265625 4.93359375 6.09765625 C2.60061942 6.13858562 0.2665415 6.14007348 -2.06640625 6.09765625 C-2.44859392 4.44150968 -2.78035727 2.77308601 -3.06640625 1.09765625 C-2.06640625 0.09765625 -2.06640625 0.09765625 0 0 Z " fill="#FCF1F1" transform="translate(332.06640625,329.90234375)"/>
<path d="M0 0 C0.33 0 0.66 0 1 0 C1.33 12.21 1.66 24.42 2 37 C2.99 37.33 3.98 37.66 5 38 C4.67 38.66 4.34 39.32 4 40 C2.68 39.67 1.36 39.34 0 39 C0 26.13 0 13.26 0 0 Z " fill="#DFE2E6" transform="translate(173,174)"/>
<path d="M0 0 C-2.96200051 1.974667 -5.09771632 2.71955354 -8.5 3.625 C-9.4590625 3.88539063 -10.418125 4.14578125 -11.40625 4.4140625 C-14 5 -14 5 -17 5 C-16.67 4.01 -16.34 3.02 -16 2 C-10.50754063 0.16918021 -5.75908058 -0.20568145 0 0 Z " fill="#EDE6E8" transform="translate(302,217)"/>
<path d="M0 0 C1 3 1 3 -0.43359375 6.13671875 C-1.09135973 7.3260128 -1.75977815 8.50946371 -2.4375 9.6875 C-2.77587891 10.29400391 -3.11425781 10.90050781 -3.46289062 11.52539062 C-4.29957915 13.0220025 -5.14862831 14.51169189 -6 16 C-7 14 -7 14 -6.07421875 10.99609375 C-5.61660156 9.82175781 -5.15898437 8.64742188 -4.6875 7.4375 C-4.23761719 6.26058594 -3.78773438 5.08367187 -3.32421875 3.87109375 C-2 1 -2 1 0 0 Z " fill="#2F4057" transform="translate(438,323)"/>
<path d="M0 0 C1.78016355 2.67024533 2.97163019 5.05030861 4.1875 8 C4.55230469 8.86625 4.91710937 9.7325 5.29296875 10.625 C6 13 6 13 5 16 C3.96455826 14.09118566 2.94709915 12.17260796 1.9375 10.25 C1.36902344 9.18265625 0.80054688 8.1153125 0.21484375 7.015625 C-1.01044806 3.97406463 -1.25348607 2.95106435 0 0 Z " fill="#425266" transform="translate(63,321)"/>
<path d="M0 0 C0.66 0.33 1.32 0.66 2 1 C2 1.99 2 2.98 2 4 C-1.63 4.66 -5.26 5.32 -9 6 C-3.30379747 1.25316456 -3.30379747 1.25316456 0 0 Z " fill="#304157" transform="translate(77,309)"/>
<path d="M0 0 C0.33 0.66 0.66 1.32 1 2 C-1.64 2.66 -4.28 3.32 -7 4 C-7 3.01 -7 2.02 -7 1 C-3.535 0.505 -3.535 0.505 0 0 Z " fill="#D1D1D1" transform="translate(255,225)"/>
</svg>
